<svg width="24" height="24" viewBox="0 0 24 24" fill="none" xmlns="http://www.w3.org/2000/svg">
<path d="M6.96912 6.96888C7.03879 6.89903 7.12155 6.84362 7.21267 6.80581C7.30379 6.768 7.40147 6.74854 7.50012 6.74854C7.59877 6.74854 7.69645 6.768 7.78757 6.80581C7.87869 6.84362 7.96145 6.89903 8.03112 6.96888L12.0001 10.9394L15.9691 6.96888C16.0389 6.89914 16.1216 6.84383 16.2127 6.80609C16.3039 6.76835 16.4015 6.74893 16.5001 6.74893C16.5987 6.74893 16.6964 6.76835 16.7875 6.80609C16.8786 6.84383 16.9614 6.89914 17.0311 6.96888C17.1009 7.03861 17.1562 7.12139 17.1939 7.2125C17.2316 7.30361 17.2511 7.40126 17.2511 7.49988C17.2511 7.59849 17.2316 7.69614 17.1939 7.78725C17.1562 7.87836 17.1009 7.96114 17.0311 8.03088L13.0606 11.9999L17.0311 15.9689C17.1009 16.0386 17.1562 16.1214 17.1939 16.2125C17.2316 16.3036 17.2511 16.4013 17.2511 16.4999C17.2511 16.5985 17.2316 16.6961 17.1939 16.7873C17.1562 16.8784 17.1009 16.9611 17.0311 17.0309C16.9614 17.1006 16.8786 17.1559 16.7875 17.1937C16.6964 17.2314 16.5987 17.2508 16.5001 17.2508C16.4015 17.2508 16.3039 17.2314 16.2127 17.1937C16.1216 17.1559 16.0389 17.1006 15.9691 17.0309L12.0001 13.0604L8.03112 17.0309C7.96139 17.1006 7.8786 17.1559 7.7875 17.1937C7.69639 17.2314 7.59874 17.2508 7.50012 17.2508C7.4015 17.2508 7.30385 17.2314 7.21274 17.1937C7.12164 17.1559 7.03885 17.1006 6.96912 17.0309C6.89939 16.9611 6.84407 16.8784 6.80633 16.7873C6.7686 16.6961 6.74917 16.5985 6.74917 16.4999C6.74917 16.4013 6.7686 16.3036 6.80633 16.2125C6.84407 16.1214 6.89939 16.0386 6.96912 15.9689L10.9396 11.9999L6.96912 8.03088C6.89927 7.96121 6.84386 7.87844 6.80605 7.78733C6.76824 7.69621 6.74878 7.59853 6.74878 7.49988C6.74878 7.40122 6.76824 7.30354 6.80605 7.21242C6.84386 7.12131 6.89927 7.03854 6.96912 6.96888Z" fill="black"/>
</svg>
