<svg width="16" height="16" viewBox="0 0 16 16" fill="none" xmlns="http://www.w3.org/2000/svg">
<path fill-rule="evenodd" clip-rule="evenodd" d="M5.90005 0.999804C5.90005 0.613205 5.58665 0.299805 5.20005 0.299805C4.81345 0.299805 4.50005 0.613205 4.50005 0.999804V1.69971H3.80005C1.86705 1.69971 0.300049 3.26671 0.300049 5.19971V6.5998V12.1997C0.300049 14.1327 1.86705 15.6997 3.80005 15.6997H12.2C14.133 15.6997 15.7 14.1327 15.7 12.1997V6.5998V5.19971C15.7 3.26671 14.133 1.69971 12.2 1.69971H11.5V0.999804C11.5 0.613205 11.1866 0.299805 10.8 0.299805C10.4134 0.299805 10.1 0.613205 10.1 0.999804V1.69971H5.90005V0.999804ZM4.50005 3.09971V3.7998C4.50005 4.1864 4.81345 4.4998 5.20005 4.4998C5.58665 4.4998 5.90005 4.1864 5.90005 3.7998V3.09971H10.1V3.7998C10.1 4.1864 10.4134 4.4998 10.8 4.4998C11.1866 4.4998 11.5 4.1864 11.5 3.7998V3.09971H12.2C13.3598 3.09971 14.3 4.03991 14.3 5.19971V5.8998H1.70005V5.19971C1.70005 4.03991 2.64025 3.09971 3.80005 3.09971H4.50005ZM1.70005 7.2998V12.1997C1.70005 13.3595 2.64025 14.2997 3.80005 14.2997H12.2C13.3598 14.2997 14.3 13.3595 14.3 12.1997V7.2998H1.70005Z" fill="black"/>
</svg>
