<svg width="24" height="24" viewBox="0 0 24 24" fill="none" xmlns="http://www.w3.org/2000/svg">
<path d="M18.6613 8.66409C18.4441 8.14276 18.1309 7.67033 17.7392 7.27326C17.3472 6.875 16.8851 6.55851 16.3779 6.341C15.852 6.11456 15.288 5.99865 14.7185 6.00001C13.9195 6.00001 13.1401 6.22678 12.4627 6.65511C12.3006 6.75758 12.1467 6.87012 12.0008 6.99274C11.855 6.87012 11.701 6.75758 11.5389 6.65511C10.8616 6.22678 10.0821 6.00001 9.28313 6.00001C8.70783 6.00001 8.15036 6.11423 7.62368 6.341C7.11483 6.55937 6.65621 6.87348 6.26241 7.27326C5.87023 7.66989 5.55695 8.14242 5.34032 8.66409C5.11506 9.20665 5 9.7828 5 10.3758C5 10.9351 5.1102 11.518 5.32897 12.1109C5.5121 12.6065 5.77463 13.1205 6.11008 13.6395C6.64162 14.4609 7.37249 15.3176 8.28001 16.186C9.78388 17.6255 11.2732 18.62 11.3364 18.6603L11.7204 18.9156C11.8906 19.0281 12.1094 19.0281 12.2795 18.9156L12.6636 18.6603C12.7268 18.6183 14.2145 17.6255 15.72 16.186C16.6275 15.3176 17.3584 14.4609 17.8899 13.6395C18.2254 13.1205 18.4895 12.6065 18.671 12.1109C18.8898 11.518 19 10.9351 19 10.3758C19.0016 9.7828 18.8865 9.20665 18.6613 8.66409Z" fill="#FF365D"/>
</svg>
