<svg width="40" height="40" viewBox="0 0 40 40" fill="none" xmlns="http://www.w3.org/2000/svg">
<path d="M11.7166 8.24984L5.81663 14.1498C0.283293 19.6832 0.283293 28.6498 5.81663 34.1832C11.35 39.7165 20.3166 39.7165 25.85 34.1832L35.8666 24.1665C36.3007 23.727 36.6324 23.1971 36.8379 22.6146C37.0435 22.0321 37.1179 21.4114 37.0558 20.7968C36.9937 20.1823 36.7967 19.589 36.4787 19.0594C36.1608 18.5298 35.7298 18.0769 35.2166 17.7332L35.8666 17.0832C37.4833 15.4665 37.4833 12.8165 35.8666 11.1832C35.6 10.9165 35.2833 10.6832 34.9666 10.4998C35.3329 9.66801 35.4169 8.73914 35.2056 7.85512C34.9943 6.97111 34.4994 6.18057 33.7966 5.6043C33.0937 5.02802 32.2215 4.69769 31.3132 4.66378C30.4049 4.62987 29.5105 4.89424 28.7666 5.4165C28.4275 4.89413 27.9763 4.45383 27.4458 4.12756C26.9153 3.80129 26.3188 3.59724 25.6996 3.53021C25.0804 3.46319 24.4541 3.53487 23.866 3.74006C23.278 3.94526 22.743 4.27881 22.3 4.7165L18.1166 8.89984C17.7771 8.38635 17.3277 7.95473 16.8009 7.63619C16.2741 7.31764 15.6831 7.12013 15.0707 7.05793C14.4582 6.99572 13.8396 7.07039 13.2596 7.27652C12.6795 7.48266 12.1525 7.81511 11.7166 8.24984V8.24984ZM14.0666 10.6165C14.4 10.2832 14.9166 10.2832 15.25 10.6165C15.5833 10.9498 15.5833 11.4665 15.25 11.7998L9.94996 17.0998C10.8863 18.0373 11.4122 19.3082 11.4122 20.6332C11.4122 21.9582 10.8863 23.229 9.94996 24.1665L12.3 26.5165C13.4455 25.3699 14.2321 23.9143 14.5636 22.3278C14.8951 20.7413 14.7572 19.0925 14.1666 17.5832L24.6666 7.08317C25 6.74984 25.5166 6.74984 25.85 7.08317C26.1833 7.4165 26.1833 7.93317 25.85 8.2665L18.1833 15.9332L20.5333 18.2832L30.55 8.2665C30.8833 7.93317 31.4 7.93317 31.7333 8.2665C32.0666 8.59984 32.0666 9.1165 31.7333 9.44984L21.7166 19.4665L24.0666 21.8165L32.3166 13.5665C32.65 13.2332 33.1666 13.2332 33.5 13.5665C33.8333 13.8998 33.8333 14.4165 33.5 14.7498L24.0666 24.1832L26.4166 26.5332L32.3166 20.6332C32.65 20.2998 33.1666 20.2998 33.5 20.6332C33.8333 20.9665 33.8333 21.4832 33.5 21.8165L23.5 31.8332C19.2666 36.0665 12.4166 36.0665 8.18329 31.8332C3.94996 27.5998 3.94996 20.7498 8.18329 16.5165L14.0666 10.6165V10.6165ZM38.3333 28.3332C38.3333 33.8498 33.85 38.3332 28.3333 38.3332V35.8332C32.4666 35.8332 35.8333 32.4665 35.8333 28.3332H38.3333ZM1.66663 11.6665C1.66663 6.14984 6.14996 1.6665 11.6666 1.6665V4.1665C7.53329 4.1665 4.16663 7.53317 4.16663 11.6665H1.66663Z" fill="#FF365D"/>
</svg>
