<svg width="14" height="20" viewBox="0 0 14 20" fill="none" xmlns="http://www.w3.org/2000/svg">
<path d="M14 7.00654C14.0011 5.82678 13.704 4.66588 13.1363 3.63169C12.5686 2.59749 11.7488 1.72355 10.7529 1.09105C9.75702 0.458544 8.61744 0.0880026 7.44001 0.0138445C6.26259 -0.0603137 5.08552 0.164317 4.01815 0.666869C2.95078 1.16942 2.02775 1.93359 1.33479 2.88839C0.641831 3.84318 0.201431 4.95763 0.0545015 6.12821C-0.0924278 7.29878 0.0588801 8.4875 0.494369 9.58394C0.929858 10.6804 1.6354 11.649 2.54545 12.3997V18.4611C2.5448 18.5697 2.57231 18.6766 2.62529 18.7714C2.67826 18.8662 2.7549 18.9456 2.84773 19.002C2.93981 19.0599 3.04519 19.0932 3.15381 19.0988C3.26243 19.1043 3.37066 19.082 3.46818 19.0338L7 17.2599L10.5318 19.0338C10.6221 19.0737 10.7195 19.0954 10.8182 19.0974C10.987 19.0974 11.1488 19.0304 11.2682 18.9111C11.3875 18.7917 11.4545 18.6299 11.4545 18.4611V12.3997C12.2506 11.7444 12.8918 10.921 13.3319 9.98848C13.772 9.05601 14.0001 8.03765 14 7.00654ZM1.27273 7.00654C1.27273 5.87379 1.60862 4.76648 2.23794 3.82464C2.86727 2.88279 3.76174 2.14872 4.80827 1.71523C5.85479 1.28175 7.00635 1.16833 8.11733 1.38932C9.22832 1.6103 10.2488 2.15577 11.0498 2.95675C11.8508 3.75772 12.3962 4.77822 12.6172 5.8892C12.8382 7.00019 12.7248 8.15175 12.2913 9.19827C11.8578 10.2448 11.1237 11.1393 10.1819 11.7686C9.24005 12.3979 8.13274 12.7338 7 12.7338C5.48168 12.7317 4.02614 12.1276 2.95253 11.054C1.87891 9.98039 1.27483 8.52486 1.27273 7.00654ZM10.1818 17.4349L7.28636 15.9793C7.19702 15.9363 7.09915 15.9139 7 15.9139C6.90085 15.9139 6.80297 15.9363 6.71363 15.9793L3.81818 17.4349V13.2429C4.80364 13.7451 5.89397 14.0069 7 14.0069C8.10603 14.0069 9.19636 13.7451 10.1818 13.2429V17.4349ZM7 11.4611C7.88102 11.4611 8.74226 11.1998 9.47481 10.7104C10.2074 10.2209 10.7783 9.52518 11.1155 8.71122C11.4526 7.89726 11.5408 7.0016 11.3689 6.1375C11.1971 5.2734 10.7728 4.47968 10.1498 3.8567C9.52686 3.23372 8.73313 2.80947 7.86904 2.63759C7.00494 2.46571 6.10928 2.55392 5.29532 2.89108C4.48136 3.22823 3.78565 3.79918 3.29618 4.53173C2.80671 5.26427 2.54545 6.12551 2.54545 7.00654C2.54545 8.18796 3.01477 9.32099 3.85016 10.1564C4.68555 10.9918 5.81858 11.4611 7 11.4611ZM7 3.82472C7.6293 3.82472 8.24447 4.01133 8.76772 4.36096C9.29097 4.71058 9.69879 5.20751 9.93961 5.78891C10.1804 6.37031 10.2434 7.01007 10.1207 7.62728C9.99791 8.24449 9.69487 8.81144 9.24988 9.25642C8.8049 9.70141 8.23795 10.0044 7.62074 10.1272C7.00353 10.25 6.36377 10.187 5.78237 9.94616C5.20097 9.70533 4.70404 9.29751 4.35441 8.77426C4.00479 8.25102 3.81818 7.63584 3.81818 7.00654C3.82028 6.16332 4.15618 5.35523 4.75243 4.75898C5.34868 4.16272 6.15677 3.82682 7 3.82472Z" fill="black"/>
</svg>
