<svg width="21" height="19" viewBox="0 0 21 19" fill="none" xmlns="http://www.w3.org/2000/svg">
<mask id="path-1-inside-1_3304_11028" fill="white">
<path fill-rule="evenodd" clip-rule="evenodd" d="M3.5 0C1.84315 0 0.5 1.34315 0.5 3V13C0.5 14.6569 1.84315 16 3.5 16H8.27309L10.5001 19L12.7269 16H17.5C19.1569 16 20.5 14.6569 20.5 13V3C20.5 1.34315 19.1569 0 17.5 0H3.5Z"/>
</mask>
<path d="M8.27309 16L9.47751 15.1059L9.02771 14.5H8.27309V16ZM10.5001 19L9.29563 19.8941L10.5001 21.5166L11.7045 19.894L10.5001 19ZM12.7269 16V14.5H11.9723L11.5225 15.106L12.7269 16ZM2 3C2 2.17157 2.67157 1.5 3.5 1.5V-1.5C1.01472 -1.5 -1 0.514719 -1 3H2ZM2 13V3H-1V13H2ZM3.5 14.5C2.67157 14.5 2 13.8284 2 13H-1C-1 15.4853 1.01472 17.5 3.5 17.5V14.5ZM8.27309 14.5H3.5V17.5H8.27309V14.5ZM11.7045 18.1059L9.47751 15.1059L7.06866 16.8941L9.29563 19.8941L11.7045 18.1059ZM11.5225 15.106L9.29561 18.106L11.7045 19.894L13.9314 16.894L11.5225 15.106ZM17.5 14.5H12.7269V17.5H17.5V14.5ZM19 13C19 13.8284 18.3284 14.5 17.5 14.5V17.5C19.9853 17.5 22 15.4853 22 13H19ZM19 3V13H22V3H19ZM17.5 1.5C18.3284 1.5 19 2.17157 19 3H22C22 0.514719 19.9853 -1.5 17.5 -1.5V1.5ZM3.5 1.5H17.5V-1.5H3.5V1.5Z" fill="#919191" mask="url(#path-1-inside-1_3304_11028)"/>
</svg>
