<svg width="25" height="24" viewBox="0 0 25 24" fill="none" xmlns="http://www.w3.org/2000/svg">
<path fill-rule="evenodd" clip-rule="evenodd" d="M2.75 12C2.75 6.61509 7.11509 2.25 12.5 2.25C17.8849 2.25 22.25 6.61509 22.25 12C22.25 17.3849 17.8849 21.75 12.5 21.75C7.11509 21.75 2.75 17.3849 2.75 12ZM12.5 3.75C7.94351 3.75 4.25 7.44351 4.25 12C4.25 13.7548 4.79781 15.3816 5.73175 16.7187C7.10517 15.5389 9.45312 14.25 12.5 14.25C15.5604 14.25 17.9015 15.7739 19.2128 16.7971C20.1805 15.4454 20.75 13.7892 20.75 12C20.75 7.44351 17.0565 3.75 12.5 3.75ZM18.2303 17.9353C17.0155 16.998 15.038 15.75 12.5 15.75C9.85519 15.75 7.83385 16.8853 6.69814 17.8653C8.1885 19.3397 10.2379 20.25 12.5 20.25C14.7261 20.25 16.7462 19.3684 18.2303 17.9353ZM10.0605 6.86009C10.7075 6.21309 11.5851 5.84961 12.5 5.84961C13.415 5.84961 14.2926 6.21309 14.9396 6.86009C15.5866 7.50709 15.95 8.38461 15.95 9.29961C15.95 10.2146 15.5866 11.0921 14.9396 11.7391C14.2926 12.3861 13.415 12.7496 12.5 12.7496C11.5851 12.7496 10.7075 12.3861 10.0605 11.7391C9.41353 11.0921 9.05005 10.2146 9.05005 9.29961C9.05005 8.38461 9.41353 7.50709 10.0605 6.86009ZM12.5 7.34961C11.9829 7.34961 11.4869 7.55506 11.1212 7.92075C10.7555 8.28645 10.55 8.78244 10.55 9.29961C10.55 9.81678 10.7555 10.3128 11.1212 10.6785C11.4869 11.0442 11.9829 11.2496 12.5 11.2496C13.0172 11.2496 13.5132 11.0442 13.8789 10.6785C14.2446 10.3128 14.45 9.81678 14.45 9.29961C14.45 8.78244 14.2446 8.28645 13.8789 7.92075C13.5132 7.55506 13.0172 7.34961 12.5 7.34961Z" fill="#919191"/>
</svg>
