<svg width="15" height="18" viewBox="0 0 15 18" fill="none" xmlns="http://www.w3.org/2000/svg">
<path fill-rule="evenodd" clip-rule="evenodd" d="M3.06708 3.06708C4.1345 1.99967 5.58223 1.4 7.09178 1.4C8.60134 1.4 10.0491 1.99967 11.1165 3.06708C12.1839 4.1345 12.7836 5.58223 12.7836 7.09178C12.7836 9.21218 11.3463 11.4387 9.76449 13.2183C8.99001 14.0895 8.21335 14.8179 7.62954 15.3287C7.42243 15.5099 7.24021 15.6632 7.09178 15.7853C6.94335 15.6632 6.76114 15.5099 6.55402 15.3287C5.97022 14.8179 5.19356 14.0895 4.41908 13.2183C2.83728 11.4387 1.4 9.21218 1.4 7.09178C1.4 5.58223 1.99967 4.1345 3.06708 3.06708ZM6.67145 17.2392C6.67163 17.2393 6.67178 17.2395 7.09178 16.6795L6.67178 17.2395C6.92067 17.4261 7.26289 17.4261 7.51178 17.2395L7.09178 16.6795C7.51178 17.2395 7.51194 17.2393 7.51212 17.2392L7.5126 17.2388L7.514 17.2378L7.51854 17.2344L7.53442 17.2223C7.54797 17.212 7.56742 17.1971 7.59236 17.1777C7.64225 17.1391 7.71414 17.0827 7.8049 17.0098C7.98637 16.8639 8.24363 16.6517 8.55145 16.3823C9.16611 15.8445 9.9874 15.0748 10.8109 14.1484C12.4249 12.3325 14.1836 9.76522 14.1836 7.09178C14.1836 5.21092 13.4364 3.4071 12.1064 2.07713C10.7765 0.747168 8.97264 0 7.09178 0C5.21092 0 3.4071 0.747168 2.07714 2.07713C0.747168 3.4071 0 5.21092 0 7.09178C0 9.76522 1.75862 12.3325 3.3727 14.1484C4.19617 15.0748 5.01746 15.8445 5.63211 16.3823C5.93994 16.6517 6.1972 16.8639 6.37866 17.0098C6.46943 17.0827 6.54132 17.1391 6.5912 17.1777C6.61614 17.1971 6.63559 17.212 6.64915 17.2223L6.66503 17.2344L6.66956 17.2378L6.67096 17.2388L6.67145 17.2392ZM5.39482 7.09174C5.39482 6.15456 6.15456 5.39482 7.09174 5.39482C8.02893 5.39482 8.78866 6.15456 8.78866 7.09174C8.78866 8.02893 8.02893 8.78866 7.09174 8.78866C6.15456 8.78866 5.39482 8.02893 5.39482 7.09174ZM7.09174 3.99483C5.38136 3.99483 3.99483 5.38136 3.99483 7.09174C3.99483 8.80212 5.38136 10.1887 7.09174 10.1887C8.80212 10.1887 10.1887 8.80212 10.1887 7.09174C10.1887 5.38136 8.80212 3.99483 7.09174 3.99483Z" fill="black"/>
</svg>
