<svg width="25" height="24" viewBox="0 0 25 24" fill="none" xmlns="http://www.w3.org/2000/svg">
<path fill-rule="evenodd" clip-rule="evenodd" d="M17.3 10C17.3 13.7555 14.2555 16.8 10.5 16.8C6.74446 16.8 3.7 13.7555 3.7 10C3.7 6.24446 6.74446 3.2 10.5 3.2C14.2555 3.2 17.3 6.24446 17.3 10ZM16.0387 17.0944C14.5115 18.2884 12.5888 19 10.5 19C5.52944 19 1.5 14.9706 1.5 10C1.5 5.02944 5.52944 1 10.5 1C15.4706 1 19.5 5.02944 19.5 10C19.5 12.0888 18.7884 14.0115 17.5944 15.5387L22.7778 20.7222L21.2222 22.2778L16.0387 17.0944Z" fill="#919191"/>
</svg>
