<svg width="22" height="22" viewBox="0 0 22 22" fill="none" xmlns="http://www.w3.org/2000/svg">
<path fill-rule="evenodd" clip-rule="evenodd" d="M15.8 9C15.8 12.7555 12.7555 15.8 9 15.8C5.24446 15.8 2.2 12.7555 2.2 9C2.2 5.24446 5.24446 2.2 9 2.2C12.7555 2.2 15.8 5.24446 15.8 9ZM14.5387 16.0944C13.0115 17.2884 11.0888 18 9 18C4.02944 18 0 13.9706 0 9C0 4.02944 4.02944 0 9 0C13.9706 0 18 4.02944 18 9C18 11.0888 17.2884 13.0115 16.0944 14.5387L21.2778 19.7222L19.7222 21.2778L14.5387 16.0944Z" fill="#919191"/>
</svg>
