<svg width="25" height="24" viewBox="0 0 25 24" fill="none" xmlns="http://www.w3.org/2000/svg">
<path d="M13.0008 16.2292C11.8501 14.815 11.174 13.5758 10.9486 12.515C10.7249 11.6592 10.8125 10.975 11.1961 10.4608C11.6018 9.86917 12.2065 9.58083 13 9.58083C13.7935 9.58083 14.3973 9.86833 14.803 10.4667C15.1823 10.975 15.2776 11.66 15.0462 12.5208C14.7987 13.6025 14.1235 14.8417 12.9949 16.2358L13.0008 16.2292ZM21.1663 17.1792C21.009 18.2175 20.2869 19.0792 19.2952 19.4983C17.3791 20.315 15.4825 19.0125 13.859 17.245C16.5439 13.9525 17.0398 11.3883 15.8874 9.73C15.2112 8.78 14.2434 8.3175 13.0008 8.3175C10.497 8.3175 9.12006 10.3925 9.66097 12.8025C9.97565 14.1067 10.8108 15.5883 12.1418 17.2458C11.3084 18.15 10.5174 18.7925 9.81831 19.19C9.2774 19.4767 8.75945 19.655 8.26362 19.6975C5.98518 20.03 4.20001 17.8642 5.01052 15.6308C5.12278 15.3433 5.34646 14.8142 5.72918 13.9967L5.75044 13.9525C6.99555 11.3042 8.50771 8.29417 10.2452 4.95667L10.2903 4.84667L10.7836 3.91667C11.1663 3.23167 11.3237 2.925 11.9326 2.5475C12.2269 2.3725 12.5875 2.285 12.9923 2.285C13.8037 2.285 14.4364 2.75 14.7069 3.12417C14.8413 3.32333 15.0003 3.58833 15.2019 3.91833L15.6764 4.82583L15.7445 4.95833C17.4803 8.295 18.9942 11.2983 20.2342 13.9533L20.2563 13.9742L20.7096 14.9908L20.9801 15.6275C21.1867 16.1383 21.2301 16.6458 21.1612 17.1758L21.1663 17.1792ZM22.2039 15.1875C22.0457 14.7017 21.7744 14.1283 21.4385 13.4425V13.4175C19.8319 10.0792 18.341 7.0775 16.9249 4.38083L16.8305 4.245C15.821 2.2175 15.099 1 13.0008 1C10.9256 1 10.0445 2.4125 9.14387 4.24833L9.07498 4.38167C7.65553 7.07833 6.16548 10.0842 4.56487 13.4208V13.465L4.08945 14.4817C3.91084 14.9017 3.81984 15.1217 3.79603 15.1875C2.64788 18.2833 5.01477 21 7.88005 21C7.90302 21 7.99232 21 8.10543 20.9775H8.42181C9.91016 20.8 11.4444 19.8733 13.0008 18.2133C14.5564 19.8708 16.0923 20.8 17.5781 20.9775H17.8945C18.0076 21 18.0978 21 18.1199 21C20.986 21.0025 23.3521 18.2825 22.2039 15.1875Z" fill="#FF365D"/>
</svg>
