<svg width="19" height="20" viewBox="0 0 19 20" fill="none" xmlns="http://www.w3.org/2000/svg">
<path d="M9.50082 15.2292C8.35011 13.815 7.67398 12.5758 7.4486 11.515C7.22492 10.6592 7.31252 9.975 7.69609 9.46083C8.10177 8.86917 8.70647 8.58083 9.49997 8.58083C10.2935 8.58083 10.8973 8.86833 11.303 9.46667C11.6823 9.975 11.7776 10.66 11.5462 11.5208C11.2987 12.6025 10.6235 13.8417 9.49486 15.2358L9.50082 15.2292ZM17.6663 16.1792C17.509 17.2175 16.7869 18.0792 15.7952 18.4983C13.8791 19.315 11.9825 18.0125 10.359 16.245C13.0439 12.9525 13.5398 10.3883 12.3874 8.73C11.7112 7.78 10.7434 7.3175 9.50082 7.3175C6.99699 7.3175 5.62006 9.3925 6.16097 11.8025C6.47565 13.1067 7.31082 14.5883 8.64183 16.2458C7.80835 17.15 7.0174 17.7925 6.31831 18.19C5.7774 18.4767 5.25945 18.655 4.76362 18.6975C2.48518 19.03 0.700009 16.8642 1.51052 14.6308C1.62278 14.3433 1.84646 13.8142 2.22918 12.9967L2.25044 12.9525C3.49555 10.3042 5.00771 7.29417 6.74525 3.95667L6.79032 3.84667L7.28361 2.91667C7.66632 2.23167 7.82366 1.925 8.43261 1.5475C8.72688 1.3725 9.08748 1.285 9.49231 1.285C10.3037 1.285 10.9364 1.75 11.2069 2.12417C11.3413 2.32333 11.5003 2.58833 11.7019 2.91833L12.1764 3.82583L12.2445 3.95833C13.9803 7.295 15.4942 10.2983 16.7342 12.9533L16.7563 12.9742L17.2096 13.9908L17.4801 14.6275C17.6867 15.1383 17.7301 15.6458 17.6612 16.1758L17.6663 16.1792ZM18.7039 14.1875C18.5457 13.7017 18.2744 13.1283 17.9385 12.4425V12.4175C16.3319 9.07917 14.841 6.0775 13.4249 3.38083L13.3305 3.245C12.321 1.2175 11.599 0 9.50082 0C7.42564 0 6.54454 1.4125 5.64387 3.24833L5.57498 3.38167C4.15553 6.07833 2.66548 9.08417 1.06487 12.4208V12.465L0.589446 13.4817C0.410845 13.9017 0.319843 14.1217 0.296029 14.1875C-0.852124 17.2833 1.51477 20 4.38005 20C4.40302 20 4.49232 20 4.60543 19.9775H4.92181C6.41016 19.8 7.94443 18.8733 9.50082 17.2133C11.0564 18.8708 12.5923 19.8 14.0781 19.9775H14.3945C14.5076 20 14.5978 20 14.6199 20C17.486 20.0025 19.8521 17.2825 18.7039 14.1875V14.1875Z" fill="#919191"/>
</svg>
