<svg width="40" height="40" viewBox="0 0 40 40" fill="none" xmlns="http://www.w3.org/2000/svg">
<g filter="url(#filter0_d_759_18580)">
<circle cx="20" cy="20" r="16" fill="white"/>
</g>
<path d="M25.3832 15.6244L25.3828 15.624C25.0358 15.2714 24.6276 14.9921 24.1808 14.8005L24.1802 14.8002C23.7167 14.6007 23.2204 14.4988 22.7197 14.5L22.7185 14.5C22.0147 14.5 21.3278 14.6996 20.7299 15.0777L20.7299 15.0777C20.5868 15.1682 20.451 15.2674 20.3226 15.3755L20.0008 15.646L19.679 15.3755C19.5506 15.2674 19.4148 15.1682 19.2717 15.0777L19.2717 15.0777C18.6738 14.6996 17.9869 14.5 17.2831 14.5C16.7753 14.5 16.2852 14.6006 15.8214 14.8002L15.8209 14.8005C15.3724 14.9929 14.9676 15.2699 14.6186 15.6241L14.618 15.6248C14.2718 15.9749 13.9943 16.393 13.8021 16.8558L25.3832 15.6244ZM25.3832 15.6244C25.7293 15.9752 26.0069 16.3935 26.1997 16.8564C26.3995 17.3378 26.5014 17.8482 26.5 18.3744V18.3758C26.5 18.8691 26.4028 19.3934 26.2019 19.9379L26.2015 19.939C26.0351 20.3933 25.7893 20.874 25.47 21.3681C24.9647 22.1489 24.2614 22.9759 23.3743 23.8248C21.8998 25.2346 20.44 26.2085 20.3869 26.2438L20.3868 26.2439L20.0037 26.4986C20.0037 26.4986 20.0036 26.4986 20.0036 26.4986C20.0015 26.5 20.0005 26.5 20 26.5C19.9995 26.5 19.9985 26.5 19.9964 26.4986C19.9964 26.4986 19.9963 26.4986 19.9963 26.4986L19.6132 26.2439L19.6132 26.2438L19.6053 26.2388C19.606 26.2392 19.6003 26.2355 19.5859 26.2259C19.5725 26.2169 19.5538 26.2044 19.5301 26.1882C19.4826 26.1559 19.4157 26.1097 19.3319 26.0506C19.1644 25.9324 18.9304 25.763 18.6518 25.5504C18.0937 25.1245 17.3606 24.5282 16.6257 23.8248L16.6257 23.8248M25.3832 15.6244L16.6257 23.8248M16.6257 23.8248C15.7386 22.9759 15.0353 22.1489 14.53 21.3681M16.6257 23.8248L14.53 21.3681M14.53 21.3681C14.2113 20.875 13.9666 20.3938 13.7981 19.9379L14.53 21.3681ZM19.5388 14.6553L19.5388 14.6554L19.5388 14.6553ZM13.5 18.3758C13.5 17.8484 13.6021 17.3374 13.8021 16.8558L13.798 19.9376C13.5972 19.3933 13.5 18.8691 13.5 18.3758Z" stroke="#919191"/>
<defs>
<filter id="filter0_d_759_18580" x="0" y="0" width="40" height="40" filterUnits="userSpaceOnUse" color-interpolation-filters="sRGB">
<feFlood flood-opacity="0" result="BackgroundImageFix"/>
<feColorMatrix in="SourceAlpha" type="matrix" values="0 0 0 0 0 0 0 0 0 0 0 0 0 0 0 0 0 0 127 0" result="hardAlpha"/>
<feOffset/>
<feGaussianBlur stdDeviation="2"/>
<feComposite in2="hardAlpha" operator="out"/>
<feColorMatrix type="matrix" values="0 0 0 0 0 0 0 0 0 0 0 0 0 0 0 0 0 0 0.4 0"/>
<feBlend mode="normal" in2="BackgroundImageFix" result="effect1_dropShadow_759_18580"/>
<feBlend mode="normal" in="SourceGraphic" in2="effect1_dropShadow_759_18580" result="shape"/>
</filter>
</defs>
</svg>
