<svg width="40" height="40" viewBox="0 0 40 40" fill="none" xmlns="http://www.w3.org/2000/svg">
<g filter="url(#filter0_d_759_18580)">
<circle cx="20" cy="20" r="16" fill="white"/>
</g>
<path d="M26.6613 16.6641C26.4441 16.1428 26.1309 15.6703 25.7392 15.2733C25.3472 14.875 24.8851 14.5585 24.3779 14.341C23.852 14.1146 23.2879 13.9987 22.7185 14C21.9195 14 21.1401 14.2268 20.4627 14.6551C20.3006 14.7576 20.1467 14.8701 20.0008 14.9927C19.855 14.8701 19.701 14.7576 19.5389 14.6551C18.8616 14.2268 18.0821 14 17.2831 14C16.7078 14 16.1504 14.1142 15.6237 14.341C15.1148 14.5594 14.6562 14.8735 14.2624 15.2733C13.8702 15.6699 13.5569 16.1424 13.3403 16.6641C13.1151 17.2067 13 17.7828 13 18.3758C13 18.9351 13.1102 19.518 13.329 20.1109C13.5121 20.6065 13.7746 21.1205 14.1101 21.6395C14.6416 22.4609 15.3725 23.3176 16.28 24.186C17.7839 25.6255 19.2732 26.62 19.3364 26.6603L19.7204 26.9156C19.8906 27.0281 20.1094 27.0281 20.2795 26.9156L20.6636 26.6603C20.7268 26.6183 22.2145 25.6255 23.72 24.186C24.6275 23.3176 25.3584 22.4609 25.8899 21.6395C26.2254 21.1205 26.4895 20.6065 26.671 20.1109C26.8898 19.518 27 18.9351 27 18.3758C27.0016 17.7828 26.8865 17.2067 26.6613 16.6641ZM20.0008 25.5869C20.0008 25.5869 14.2316 21.7554 14.2316 18.3758C14.2316 16.6641 15.5978 15.2766 17.2831 15.2766C18.4678 15.2766 19.4952 15.962 20.0008 16.9631C20.5064 15.962 21.5338 15.2766 22.7185 15.2766C24.4039 15.2766 25.77 16.6641 25.77 18.3758C25.77 21.7554 20.0008 25.5869 20.0008 25.5869Z" fill="#919191"/>
<defs>
<filter id="filter0_d_759_18580" x="0" y="0" width="40" height="40" filterUnits="userSpaceOnUse" color-interpolation-filters="sRGB">
<feFlood flood-opacity="0" result="BackgroundImageFix"/>
<feColorMatrix in="SourceAlpha" type="matrix" values="0 0 0 0 0 0 0 0 0 0 0 0 0 0 0 0 0 0 127 0" result="hardAlpha"/>
<feOffset/>
<feGaussianBlur stdDeviation="2"/>
<feComposite in2="hardAlpha" operator="out"/>
<feColorMatrix type="matrix" values="0 0 0 0 0 0 0 0 0 0 0 0 0 0 0 0 0 0 0.4 0"/>
<feBlend mode="normal" in2="BackgroundImageFix" result="effect1_dropShadow_759_18580"/>
<feBlend mode="normal" in="SourceGraphic" in2="effect1_dropShadow_759_18580" result="shape"/>
</filter>
</defs>
</svg>
