<svg width="21" height="19" viewBox="0 0 21 19" fill="none" xmlns="http://www.w3.org/2000/svg">
<path d="M18.0581 2.45096L18.0574 2.45025C17.5784 1.9635 17.0152 1.57838 16.3994 1.31428L16.3983 1.31378C15.7594 1.0387 15.0754 0.898369 14.3857 0.900014L14.3835 0.900019C13.4135 0.900017 12.4666 1.17511 11.6419 1.69656L11.6419 1.69658C11.4445 1.82139 11.2574 1.9582 11.0803 2.10709L10.5011 2.59402L9.92198 2.10709C9.74488 1.9582 9.55778 1.82139 9.36037 1.69658L9.36035 1.69656C8.53569 1.17511 7.58877 0.900017 6.61876 0.900017C5.91836 0.900017 5.24316 1.0386 4.60403 1.31378L4.60304 1.31421C3.98479 1.57952 3.42649 1.96133 2.94462 2.45052L2.94342 2.45174C2.46594 2.93463 2.08286 3.51166 1.81738 4.15094L18.0581 2.45096ZM18.0581 2.45096C18.5353 2.93475 18.9186 3.512 19.185 4.15125C19.4612 4.81655 19.602 5.52141 19.6 6.24862V6.25108C19.6 6.93141 19.466 7.65867 19.1856 8.41837L19.1849 8.42036M18.0581 2.45096L19.1849 8.42036M5.80796 13.9012L5.80806 13.9013C6.85149 14.9001 7.8932 15.7474 8.6866 16.3529C9.08264 16.6551 9.41509 16.8957 9.6527 17.0634C9.77148 17.1472 9.8663 17.2126 9.93323 17.2582C9.99548 17.3006 10.0287 17.3226 10.0349 17.3266C10.0357 17.3272 10.0361 17.3274 10.036 17.3273L10.0431 17.3319L10.0502 17.3366L10.5 17.6356L10.9498 17.3366L10.9499 17.3365C11.0221 17.2885 13.0971 15.9043 15.192 13.9012C16.4518 12.6957 17.4464 11.5251 18.1585 10.4247L5.80796 13.9012ZM5.80796 13.9012C4.54832 12.6958 3.55379 11.5254 2.84171 10.4251L5.80796 13.9012ZM19.1849 8.42036C18.9529 9.05393 18.6086 9.72824 18.1586 10.4246L19.1849 8.42036ZM1.4 6.25108C1.4 5.52212 1.54112 4.81637 1.81735 4.15101L1.81416 8.41793C1.53397 7.65839 1.4 6.93128 1.4 6.25108ZM2.84142 10.4246C2.39249 9.72994 2.04958 9.05485 1.81432 8.41837L2.84142 10.4246Z" stroke="#919191" stroke-width="1.8"/>
</svg>
