<svg width="25" height="24" viewBox="0 0 25 24" fill="none" xmlns="http://www.w3.org/2000/svg">
<path d="M22.0161 6.80585C21.7058 6.06109 21.2584 5.38619 20.6988 4.81894C20.1389 4.25 19.4787 3.79788 18.7542 3.48714C18.0029 3.16366 17.1971 2.99808 16.3835 3.00002C15.2422 3.00002 14.1286 3.32397 13.1609 3.93588C12.9294 4.08225 12.7095 4.24303 12.5011 4.4182C12.2928 4.24303 12.0729 4.08225 11.8413 3.93588C10.8736 3.32397 9.76009 3.00002 8.61876 3.00002C7.7969 3.00002 7.00052 3.16319 6.24811 3.48714C5.52118 3.7991 4.86601 4.24783 4.30345 4.81894C3.74319 5.38555 3.29564 6.06061 2.98617 6.80585C2.66437 7.58093 2.5 8.40401 2.5 9.25108C2.5 10.0502 2.65743 10.8828 2.96996 11.7299C3.23157 12.4378 3.60661 13.1721 4.08583 13.9136C4.84518 15.087 5.88928 16.3108 7.18572 17.5514C9.33412 19.6079 11.4617 21.0285 11.552 21.0861L12.1006 21.4508C12.3437 21.6116 12.6563 21.6116 12.8993 21.4508L13.448 21.0861C13.5383 21.0261 15.6635 19.6079 17.8143 17.5514C19.1107 16.3108 20.1548 15.087 20.9141 13.9136C21.3934 13.1721 21.7707 12.4378 22.03 11.7299C22.3426 10.8828 22.5 10.0502 22.5 9.25108C22.5023 8.40401 22.3379 7.58093 22.0161 6.80585ZM12.5011 19.5527C12.5011 19.5527 4.25946 14.0792 4.25946 9.25108C4.25946 6.80585 6.21107 4.82374 8.61876 4.82374C10.3111 4.82374 11.7788 5.8028 12.5011 7.23298C13.2235 5.8028 14.6912 4.82374 16.3835 4.82374C18.7912 4.82374 20.7428 6.80585 20.7428 9.25108C20.7428 14.0792 12.5011 19.5527 12.5011 19.5527Z" fill="#919191"/>
</svg>
