<svg width="24" height="24" viewBox="0 0 24 24" fill="none" xmlns="http://www.w3.org/2000/svg">
<path d="M21.5161 6.80585C21.2058 6.06109 20.7584 5.38619 20.1988 4.81894C19.6389 4.25 18.9787 3.79788 18.2542 3.48714C17.5029 3.16366 16.6971 2.99808 15.8835 3.00002C14.7422 3.00002 13.6286 3.32397 12.6609 3.93588C12.4294 4.08225 12.2095 4.24303 12.0011 4.4182C11.7928 4.24303 11.5729 4.08225 11.3413 3.93588C10.3736 3.32397 9.26009 3.00002 8.11876 3.00002C7.2969 3.00002 6.50052 3.16319 5.74811 3.48714C5.02118 3.7991 4.36601 4.24783 3.80345 4.81894C3.24319 5.38555 2.79564 6.06061 2.48617 6.80585C2.16437 7.58093 2 8.40401 2 9.25108C2 10.0502 2.15743 10.8828 2.46996 11.7299C2.73157 12.4378 3.10661 13.1721 3.58583 13.9136C4.34518 15.087 5.38928 16.3108 6.68572 17.5514C8.83412 19.6079 10.9617 21.0285 11.052 21.0861L11.6006 21.4508C11.8437 21.6116 12.1563 21.6116 12.3993 21.4508L12.948 21.0861C13.0383 21.0261 15.1635 19.6079 17.3143 17.5514C18.6107 16.3108 19.6548 15.087 20.4141 13.9136C20.8934 13.1721 21.2707 12.4378 21.53 11.7299C21.8426 10.8828 22 10.0502 22 9.25108C22.0023 8.40401 21.8379 7.58093 21.5161 6.80585ZM12.0011 19.5527C12.0011 19.5527 3.75946 14.0792 3.75946 9.25108C3.75946 6.80585 5.71107 4.82374 8.11876 4.82374C9.81108 4.82374 11.2788 5.8028 12.0011 7.23298C12.7235 5.8028 14.1912 4.82374 15.8835 4.82374C18.2912 4.82374 20.2428 6.80585 20.2428 9.25108C20.2428 14.0792 12.0011 19.5527 12.0011 19.5527Z" fill="#919191"/>
</svg>
